<?xml version="1.0" standalone="no"?>
<!DOCTYPE svg PUBLIC "-//W3C//DTD SVG 20010904//EN"
 "http://www.w3.org/TR/2001/REC-SVG-20010904/DTD/svg10.dtd">
<svg version="1.0" xmlns="http://www.w3.org/2000/svg"
 width="738.000000pt" height="738.000000pt" viewBox="0 0 738.000000 738.000000"
 preserveAspectRatio="xMidYMid meet">
<metadata>
Created by potrace 1.14, written by Peter Selinger 2001-2017
</metadata>
<g transform="translate(0.000000,738.000000) scale(0.100000,-0.100000)"
fill="#000000" stroke="none">
<path d="M4960 4783 c-142 -16 -341 -95 -438 -176 -57 -47 -122 -127 -154
-190 -33 -66 -58 -184 -58 -276 0 -170 48 -287 164 -403 59 -59 89 -79 190
-128 67 -32 195 -84 286 -116 217 -74 317 -121 358 -168 29 -34 32 -42 32
-106 0 -60 -3 -72 -27 -101 -15 -17 -42 -38 -60 -45 -42 -18 -164 -18 -206 0
-60 25 -117 111 -117 179 0 16 -22 17 -315 17 l-315 0 6 -42 c31 -213 126
-369 292 -478 157 -103 340 -152 567 -152 271 -1 459 67 618 221 109 105 174
250 184 410 10 160 -40 291 -153 405 -101 103 -208 158 -504 266 -263 95 -348
147 -370 229 -18 66 7 143 57 177 21 15 46 19 103 19 114 -1 169 -41 195 -142
l12 -48 317 -3 316 -2 0 25 c0 52 -33 172 -66 241 -96 203 -293 334 -569 379
-82 14 -257 18 -345 8z"/>
<path d="M1407 4753 c-4 -3 -7 -485 -7 -1070 l0 -1063 295 0 295 0 0 580 c0
471 2 580 13 580 8 0 33 -58 64 -147 27 -82 117 -343 198 -580 l148 -433 246
0 246 0 195 575 c118 347 200 575 208 575 9 0 12 -122 12 -575 l0 -575 295 0
295 0 0 1070 0 1070 -356 -2 -356 -3 -261 -692 c-144 -381 -267 -693 -273
-693 -6 0 -132 313 -280 695 l-268 695 -351 0 c-194 0 -355 -3 -358 -7z"/>
</g>
</svg>
